<?xml version="1.0" encoding="utf-8"?>
<!-- Generator: Adobe Illustrator 25.2.1, SVG Export Plug-In . SVG Version: 6.00 Build 0)  -->
<svg version="1.1" id="Слой_1" xmlns="http://www.w3.org/2000/svg" xmlns:xlink="http://www.w3.org/1999/xlink" x="0px" y="0px"
	 viewBox="0 0 600 150" style="enable-background:new 0 0 600 150;" xml:space="preserve">
<style type="text/css">
	.st0{fill:#005CE9;}
	.st1{fill:#BF0015;}
	.st2{font-family:'MyriadPro-Regular';}
	.st3{font-size:29.4398px;}
</style>
<g>
	<path class="st0" d="M35.74,4.54v105.25H21.17V65.58h-4.36v44.21H2.25V4.54h14.56v37.64h4.36V4.54H35.74z"/>
	<path class="st0" d="M74.86,66.17c0,10.58-0.13,18.06-0.4,22.46c-0.27,4.4-1.1,8.42-2.49,12.06c-1.4,3.64-3.28,6.44-5.66,8.39
		c-2.38,1.95-5.14,2.93-8.3,2.93c-3,0-5.69-0.92-8.08-2.76c-2.39-1.84-4.31-4.6-5.76-8.29c-1.45-3.68-2.32-7.69-2.59-12.03
		c-0.28-4.33-0.42-11.92-0.42-22.75V48.16c0-10.57,0.13-18.06,0.4-22.46c0.27-4.4,1.1-8.42,2.49-12.06c1.4-3.64,3.28-6.44,5.66-8.39
		s5.14-2.93,8.3-2.93c3,0,5.69,0.92,8.08,2.76c2.39,1.84,4.31,4.6,5.76,8.29c1.45,3.68,2.32,7.69,2.59,12.03
		c0.28,4.33,0.42,11.92,0.42,22.75V66.17z M60.3,31.58c0-4.9-0.14-8.03-0.43-9.39c-0.29-1.36-0.88-2.05-1.78-2.05
		c-0.76,0-1.34,0.55-1.75,1.66s-0.61,4.37-0.61,9.78v49.15c0,6.11,0.13,9.88,0.4,11.31c0.27,1.43,0.88,2.15,1.85,2.15
		c0.99,0,1.63-0.82,1.9-2.47c0.28-1.65,0.42-5.57,0.42-11.77V31.58z"/>
	<path class="st0" d="M80.29,4.54h14.53c4.59,0,8.07,0.67,10.43,2.01c2.36,1.34,4.27,4.06,5.73,8.15
		c1.45,4.09,2.18,10.69,2.18,19.78c0,6.15-0.51,10.44-1.54,12.86c-1.03,2.43-3.05,4.29-6.07,5.59c3.37,1.43,5.65,3.81,6.85,7.12
		c1.2,3.32,1.8,8.4,1.8,15.25v9.76c0,7.11-0.43,12.38-1.3,15.81c-0.86,3.43-2.24,5.77-4.13,7.03c-1.89,1.26-5.77,1.89-11.62,1.89
		H80.29V4.54z M94.86,22.55v23.4c0.62-0.04,1.11-0.07,1.45-0.07c1.43,0,2.34-0.66,2.73-1.98c0.39-1.32,0.59-5.1,0.59-11.34
		c0-3.29-0.16-5.6-0.48-6.92c-0.32-1.32-0.74-2.16-1.26-2.5C97.36,22.79,96.36,22.59,94.86,22.55z M94.86,62.33v29.45
		c2.05-0.13,3.36-0.74,3.93-1.82c0.56-1.08,0.85-3.75,0.85-8v-9.82c0-4.51-0.25-7.24-0.76-8.19C98.36,63.01,97.02,62.46,94.86,62.33
		z"/>
	<path class="st0" d="M152.7,66.17c0,10.58-0.13,18.06-0.4,22.46c-0.27,4.4-1.1,8.42-2.49,12.06c-1.4,3.64-3.28,6.44-5.66,8.39
		c-2.38,1.95-5.14,2.93-8.3,2.93c-3,0-5.69-0.92-8.08-2.76c-2.39-1.84-4.31-4.6-5.76-8.29c-1.45-3.68-2.32-7.69-2.59-12.03
		C119.14,84.59,119,77,119,66.17V48.16c0-10.57,0.13-18.06,0.4-22.46c0.27-4.4,1.1-8.42,2.49-12.06c1.4-3.64,3.28-6.44,5.66-8.39
		s5.14-2.93,8.3-2.93c3,0,5.69,0.92,8.08,2.76c2.39,1.84,4.31,4.6,5.76,8.29c1.45,3.68,2.32,7.69,2.59,12.03
		c0.28,4.33,0.42,11.92,0.42,22.75V66.17z M138.13,31.58c0-4.9-0.14-8.03-0.43-9.39c-0.29-1.36-0.88-2.05-1.78-2.05
		c-0.76,0-1.34,0.55-1.75,1.66s-0.61,4.37-0.61,9.78v49.15c0,6.11,0.13,9.88,0.4,11.31c0.27,1.43,0.88,2.15,1.85,2.15
		c0.99,0,1.63-0.82,1.9-2.47c0.28-1.65,0.42-5.57,0.42-11.77V31.58z"/>
	<path class="st0" d="M192.14,50.37h-14.56V32.08c0-5.32-0.16-8.64-0.47-9.96c-0.31-1.32-1-1.98-2.06-1.98
		c-1.2,0-1.96,0.8-2.28,2.41c-0.32,1.6-0.48,5.07-0.48,10.4v48.89c0,5.11,0.16,8.45,0.48,10.01c0.32,1.56,1.05,2.34,2.18,2.34
		c1.08,0,1.79-0.78,2.13-2.35c0.33-1.56,0.5-5.24,0.5-11.01V67.6h14.56v4.1c0,10.89-0.41,18.62-1.23,23.18
		c-0.82,4.56-2.63,8.55-5.43,11.98c-2.8,3.43-6.26,5.14-10.36,5.14c-4.27,0-7.78-1.45-10.55-4.36c-2.77-2.9-4.6-6.92-5.5-12.06
		c-0.9-5.14-1.35-12.86-1.35-23.18V41.66c0-7.58,0.14-13.27,0.42-17.06c0.28-3.79,1.1-7.44,2.47-10.95
		c1.37-3.51,3.27-6.27,5.71-8.29c2.43-2.02,5.23-3.02,8.39-3.02c4.29,0,7.83,1.56,10.62,4.67c2.79,3.12,4.62,7,5.5,11.65
		c0.88,4.65,1.31,11.89,1.31,21.71V50.37z"/>
	<path class="st0" d="M229.88,109.79H217.7V61.88l-7.58,47.91h-12.77V4.48h12.18V52l8.16-47.52h12.18V109.79z"/>
	<path class="st0" d="M269.63,85.15c0,7.85-0.54,13.48-1.63,16.9c-1.08,3.42-2.73,5.57-4.93,6.44c-2.2,0.87-5.71,1.3-10.53,1.3
		h-16.85V4.48h28.54v18.27h-13.94v17.81h2.25c4.5,0,7.9,0.5,10.21,1.5c2.31,1,4.03,3.2,5.17,6.6c1.14,3.4,1.71,8.74,1.71,16.02
		V85.15z M255.03,81.97V66.75c0-4.42-0.24-7.11-0.71-8.06c-0.47-0.95-1.82-1.5-4.03-1.63v34.58c1.84,0,3.1-0.44,3.75-1.33
		C254.7,89.43,255.03,86.65,255.03,81.97z"/>
	<path class="st0" d="M307.3,109.79h-12.18V61.88l-7.58,47.91h-12.77V4.48h12.18V52l8.16-47.52h12.18V109.79z"/>
	<path class="st0" d="M313.11,4.54h14.67c3.97,0,7.02,0.58,9.15,1.75c2.13,1.17,3.74,2.86,4.81,5.07c1.07,2.21,1.8,4.89,2.18,8.03
		c0.38,3.14,0.57,8.01,0.57,14.59v9.17c0,6.72-0.37,11.62-1.11,14.69c-0.74,3.08-2.09,5.44-4.07,7.09
		c-1.97,1.65-4.55,2.47-7.73,2.47h-3.91v42.39h-14.56V4.54z M327.68,22.55v26.78c0.42,0.04,0.77,0.07,1.07,0.07
		c1.34,0,2.27-0.62,2.78-1.85c0.52-1.24,0.78-3.8,0.78-7.7v-8.65c0-3.6-0.3-5.94-0.9-7.02C330.81,23.09,329.57,22.55,327.68,22.55z"
		/>
	<path class="st0" d="M382.68,50.37h-14.56V32.08c0-5.32-0.16-8.64-0.47-9.96c-0.31-1.32-1-1.98-2.06-1.98
		c-1.2,0-1.96,0.8-2.28,2.41c-0.32,1.6-0.48,5.07-0.48,10.4v48.89c0,5.11,0.16,8.45,0.48,10.01c0.32,1.56,1.05,2.34,2.18,2.34
		c1.08,0,1.79-0.78,2.13-2.35c0.33-1.56,0.5-5.24,0.5-11.01V67.6h14.56v4.1c0,10.89-0.41,18.62-1.23,23.18
		c-0.82,4.56-2.63,8.55-5.43,11.98c-2.8,3.43-6.26,5.14-10.36,5.14c-4.27,0-7.78-1.45-10.55-4.36c-2.77-2.9-4.6-6.92-5.5-12.06
		c-0.9-5.14-1.35-12.86-1.35-23.18V41.66c0-7.58,0.14-13.27,0.42-17.06c0.28-3.79,1.1-7.44,2.47-10.95
		c1.37-3.51,3.27-6.27,5.71-8.29c2.43-2.02,5.23-3.02,8.39-3.02c4.29,0,7.83,1.56,10.62,4.67c2.79,3.12,4.62,7,5.5,11.65
		c0.88,4.65,1.31,11.89,1.31,21.71V50.37z"/>
	<path class="st0" d="M387.9,4.48h14.6l0.07,44.47c2.74-0.13,4.16-2.99,4.26-8.58l0.28-20.54c0.09-7.58,0.88-12.7,2.35-15.34h13.46
		c-1.32,2.56-1.96,7.84-1.94,15.86l0.07,18.07c0.05,10.92-3.23,17.14-9.82,18.66c6.6,1.52,9.87,7.82,9.82,18.92l-0.07,16.77
		c-0.02,7.98,0.62,13.65,1.94,17.03h-13.46c-1.57-2.64-2.35-7.76-2.35-15.34V73.9c0-2.6-0.42-4.69-1.26-6.27
		c-0.84-1.58-1.93-2.39-3.27-2.44l-0.07,44.6h-14.6V4.48z"/>
	<path class="st0" d="M442.6,57.59v18.14h-18.37V57.59H442.6z"/>
	<path class="st0" d="M480.75,50.37h-14.56V32.08c0-5.32-0.16-8.64-0.47-9.96c-0.31-1.32-1-1.98-2.06-1.98
		c-1.2,0-1.96,0.8-2.28,2.41c-0.32,1.6-0.48,5.07-0.48,10.4v48.89c0,5.11,0.16,8.45,0.48,10.01c0.32,1.56,1.05,2.34,2.18,2.34
		c1.08,0,1.79-0.78,2.13-2.35c0.33-1.56,0.5-5.24,0.5-11.01V67.6h14.56v4.1c0,10.89-0.41,18.62-1.23,23.18
		c-0.82,4.56-2.63,8.55-5.43,11.98c-2.8,3.43-6.26,5.14-10.36,5.14c-4.27,0-7.78-1.45-10.55-4.36c-2.77-2.9-4.6-6.92-5.5-12.06
		c-0.9-5.14-1.35-12.86-1.35-23.18V41.66c0-7.58,0.14-13.27,0.42-17.06c0.28-3.79,1.1-7.44,2.47-10.95
		c1.37-3.51,3.27-6.27,5.71-8.29c2.43-2.02,5.23-3.02,8.39-3.02c4.29,0,7.83,1.56,10.62,4.67c2.79,3.12,4.62,7,5.5,11.65
		c0.88,4.65,1.31,11.89,1.31,21.71V50.37z"/>
	<path class="st0" d="M519.26,66.17c0,10.58-0.13,18.06-0.4,22.46c-0.26,4.4-1.1,8.42-2.49,12.06c-1.4,3.64-3.28,6.44-5.66,8.39
		s-5.14,2.93-8.3,2.93c-3,0-5.69-0.92-8.08-2.76c-2.39-1.84-4.31-4.6-5.76-8.29s-2.32-7.69-2.59-12.03
		c-0.28-4.33-0.42-11.92-0.42-22.75V48.16c0-10.57,0.13-18.06,0.4-22.46c0.26-4.4,1.1-8.42,2.49-12.06c1.4-3.64,3.28-6.44,5.66-8.39
		c2.38-1.95,5.14-2.93,8.3-2.93c3,0,5.69,0.92,8.08,2.76c2.39,1.84,4.31,4.6,5.76,8.29c1.45,3.68,2.32,7.69,2.59,12.03
		c0.28,4.33,0.42,11.92,0.42,22.75V66.17z M504.69,31.58c0-4.9-0.14-8.03-0.43-9.39c-0.29-1.36-0.88-2.05-1.78-2.05
		c-0.76,0-1.34,0.55-1.75,1.66c-0.4,1.11-0.61,4.37-0.61,9.78v49.15c0,6.11,0.13,9.88,0.4,11.31c0.26,1.43,0.88,2.15,1.85,2.15
		c0.99,0,1.63-0.82,1.9-2.47c0.28-1.65,0.42-5.57,0.42-11.77V31.58z"/>
	<path class="st0" d="M560.25,109.79h-14.6V25.54h-4.26v59.61c0,7.85-0.54,13.48-1.61,16.9c-1.08,3.42-2.71,5.57-4.9,6.44
		c-2.19,0.87-5.68,1.3-10.47,1.3h-2.28V91.65c1.78,0,3-0.41,3.67-1.23c0.67-0.82,1-3.64,1-8.45V4.48h33.45V109.79z"/>
	<path class="st0" d="M600,85.15c0,7.85-0.54,13.48-1.63,16.9c-1.08,3.42-2.73,5.57-4.93,6.44c-2.2,0.87-5.71,1.3-10.53,1.3h-16.85
		V4.48h14.6v36.08h2.25c4.5,0,7.9,0.5,10.21,1.5c2.31,1,4.03,3.2,5.17,6.6c1.14,3.4,1.71,8.74,1.71,16.02V85.15z M585.4,81.97V66.75
		c0-4.42-0.24-7.11-0.71-8.06c-0.47-0.95-1.82-1.5-4.03-1.63v34.58c1.85,0,3.1-0.44,3.75-1.33C585.07,89.43,585.4,86.65,585.4,81.97
		z"/>
</g>
<text transform="matrix(1.0875 0 0 1 79 137.6406)" class="st1 st2 st3">Продажа соли оптом и розницу</text>
</svg>
